{
  "source": "C:\\Users\\Peter\\Desktop\\stuff\\MIUN\\quantitative_research\\video_compression\\videos\\BVI-HD\\RockWater_1920x1080_30fps.mp4",
  "output": "C:\\Users\\Peter\\Desktop\\stuff\\MIUN\\quantitative_research\\video_compression\\compressed_videos\\BVI-HD\\vp9\\8\\RockWater_1920x1080_30fps_vp9.webm",
  "codec": "vp9",
  "ok": "Input #0, mov,mp4,m4a,3gp,3g2,mj2, from 'C:\\Users\\Peter\\Desktop\\stuff\\MIUN\\quantitative_research\\video_compression\\videos\\BVI-HD\\RockWater_1920x1080_30fps.mp4':\n  Metadata:\n    major_brand     : isom\n    minor_version   : 512\n    compatible_brands: isomiso2avc1mp41\n    encoder         : Lavf54.28.101\n  Duration: 00:00:05.00, start: 0.000000, bitrate: 245943 kb/s\n  Stream #0:0[0x1](und): Video: h264 (High 4:4:4 Predictive) (avc1 / 0x31637661), yuv420p(progressive), 1920x1080, 245940 kb/s, 30 fps, 30 tbr, 30 tbn (default)\n    Metadata:\n      handler_name    : VideoHandler\n      vendor_id       : [0][0][0][0]\n[out#0/webm @ 000001a1154e0b00] Codec AVOption b:a (set bitrate (in bits/s)) has not been used for any stream. The most likely reason is either wrong type (e.g. a video option with no video streams) or that it is a private option of some decoder which was not actually used for any stream.\nStream mapping:\n  Stream #0:0 -> #0:0 (h264 (native) -> vp9 (libvpx-vp9))\nPress [q] to stop, [?] for help\n[libvpx-vp9 @ 000001a115d94600] v1.15.2-100-g40561f514\nOutput #0, webm, to 'C:\\Users\\Peter\\Desktop\\stuff\\MIUN\\quantitative_research\\video_compression\\compressed_videos\\BVI-HD\\vp9\\8\\RockWater_1920x1080_30fps_vp9.webm':\n  Metadata:\n    major_brand     : isom\n    minor_version   : 512\n    compatible_brands: isomiso2avc1mp41\n    encoder         : Lavf62.3.100\n  Stream #0:0(und): Video: vp9, yuv420p(tv, progressive), 1920x1080, q=2-31, 8000 kb/s, 30 fps, 1k tbn (default)\n    Metadata:\n      encoder         : Lavc62.11.100 libvpx-vp9\n      handler_name    : VideoHandler\n      vendor_id       : [0][0][0][0]\n    Side data:\n      cpb: bitrate max/min/avg: 0/0/0 buffer size: 8000000 vbv_delay: N/A\nframe=    0 fps=0.0 q=0.0 size=       0KiB time=N/A bitrate=N/A speed=N/A elapsed=0:00:00.53    \nframe=    5 fps=4.6 q=46.0 size=       1KiB time=00:00:00.16 bitrate=  30.4kbits/s speed=0.154x elapsed=0:00:01.08    \nframe=    9 fps=5.6 q=44.0 size=       1KiB time=00:00:00.30 bitrate=  16.9kbits/s speed=0.187x elapsed=0:00:01.60    \nframe=   12 fps=5.6 q=43.0 size=       1KiB time=00:00:00.40 bitrate=  12.7kbits/s speed=0.188x elapsed=0:00:02.12    \nframe=   16 fps=6.0 q=45.0 size=       1KiB time=00:00:00.53 bitrate=   9.5kbits/s speed=0.201x elapsed=0:00:02.64    \nframe=   20 fps=6.3 q=43.0 size=       1KiB time=00:00:00.66 bitrate=   7.6kbits/s speed=0.211x elapsed=0:00:03.15    \nframe=   23 fps=6.2 q=46.0 size=       1KiB time=00:00:00.76 bitrate=   6.6kbits/s speed=0.208x elapsed=0:00:03.68    \nframe=   26 fps=6.2 q=47.0 size=       1KiB time=00:00:00.86 bitrate=   5.9kbits/s speed=0.206x elapsed=0:00:04.20    \nframe=   30 fps=6.3 q=44.0 size=       1KiB time=00:00:01.00 bitrate=   5.1kbits/s speed=0.211x elapsed=0:00:04.73    \nframe=   33 fps=6.3 q=45.0 size=       1KiB time=00:00:01.10 bitrate=   4.6kbits/s speed=0.209x elapsed=0:00:05.27    \nframe=   37 fps=6.4 q=44.0 size=       1KiB time=00:00:01.23 bitrate=   4.1kbits/s speed=0.213x elapsed=0:00:05.78    \nframe=   40 fps=6.3 q=43.0 size=       1KiB time=00:00:01.33 bitrate=   3.8kbits/s speed=0.211x elapsed=0:00:06.30    \nframe=   43 fps=6.3 q=41.0 size=       1KiB time=00:00:01.43 bitrate=   3.5kbits/s speed=0.209x elapsed=0:00:06.85    \nframe=   47 fps=6.4 q=29.0 size=       1KiB time=00:00:01.56 bitrate=   3.2kbits/s speed=0.213x elapsed=0:00:07.36    \nframe=   51 fps=6.5 q=40.0 size=       1KiB time=00:00:01.70 bitrate=   3.0kbits/s speed=0.216x elapsed=0:00:07.88    \nframe=   54 fps=6.4 q=45.0 size=       1KiB time=00:00:01.80 bitrate=   2.8kbits/s speed=0.213x elapsed=0:00:08.44    \nframe=   59 fps=6.6 q=44.0 size=       1KiB time=00:00:01.96 bitrate=   2.6kbits/s speed=0.22x elapsed=0:00:08.95    \nframe=   62 fps=6.5 q=44.0 size=       1KiB time=00:00:02.06 bitrate=   2.5kbits/s speed=0.218x elapsed=0:00:09.47    \nframe=   66 fps=6.6 q=38.0 size=       1KiB time=00:00:02.20 bitrate=   2.3kbits/s speed=0.22x elapsed=0:00:09.99    \nframe=   70 fps=6.7 q=37.0 size=       1KiB time=00:00:02.33 bitrate=   2.2kbits/s speed=0.222x elapsed=0:00:10.50    \nframe=   73 fps=6.6 q=38.0 size=       1KiB time=00:00:02.43 bitrate=   2.1kbits/s speed=0.221x elapsed=0:00:11.01    \nframe=   77 fps=6.7 q=41.0 size=       1KiB time=00:00:02.56 bitrate=   2.0kbits/s speed=0.222x elapsed=0:00:11.53    \nframe=   81 fps=6.7 q=42.0 size=       1KiB time=00:00:02.70 bitrate=   1.9kbits/s speed=0.224x elapsed=0:00:12.05    \nframe=   84 fps=6.7 q=40.0 size=       1KiB time=00:00:02.80 bitrate=   1.8kbits/s speed=0.223x elapsed=0:00:12.57    \nframe=   88 fps=6.7 q=43.0 size=       1KiB time=00:00:02.93 bitrate=   1.7kbits/s speed=0.224x elapsed=0:00:13.08    \nframe=   92 fps=6.8 q=44.0 size=       1KiB time=00:00:03.06 bitrate=   1.7kbits/s speed=0.225x elapsed=0:00:13.60    \nframe=   94 fps=6.7 q=44.0 size=       1KiB time=00:00:03.13 bitrate=   1.6kbits/s speed=0.222x elapsed=0:00:14.11    \nframe=   98 fps=6.7 q=45.0 size=       1KiB time=00:00:03.26 bitrate=   1.6kbits/s speed=0.223x elapsed=0:00:14.63    \nframe=  102 fps=6.7 q=48.0 size=       1KiB time=00:00:03.40 bitrate=   1.5kbits/s speed=0.225x elapsed=0:00:15.13    \nframe=  106 fps=6.8 q=43.0 size=       1KiB time=00:00:03.53 bitrate=   1.4kbits/s speed=0.226x elapsed=0:00:15.66    \nframe=  109 fps=6.7 q=42.0 size=       1KiB time=00:00:03.63 bitrate=   1.4kbits/s speed=0.225x elapsed=0:00:16.18    \nframe=  112 fps=6.7 q=42.0 size=       1KiB time=00:00:03.73 bitrate=   1.4kbits/s speed=0.224x elapsed=0:00:16.68    \nframe=  115 fps=6.7 q=41.0 size=       1KiB time=00:00:03.83 bitrate=   1.3kbits/s speed=0.223x elapsed=0:00:17.20    \nframe=  119 fps=6.7 q=41.0 size=       1KiB time=00:00:03.96 bitrate=   1.3kbits/s speed=0.224x elapsed=0:00:17.73    \nframe=  122 fps=6.7 q=42.0 size=       1KiB time=00:00:04.06 bitrate=   1.2kbits/s speed=0.223x elapsed=0:00:18.25    \nframe=  125 fps=6.7 q=44.0 size=       1KiB time=00:00:04.16 bitrate=   1.2kbits/s speed=0.222x elapsed=0:00:18.77    \nframe=  126 fps=6.5 q=44.0 size=       1KiB time=00:00:04.20 bitrate=   1.2kbits/s speed=0.218x elapsed=0:00:19.29    \nframe=  126 fps=6.4 q=44.0 size=       1KiB time=00:00:04.20 bitrate=   1.2kbits/s speed=0.212x elapsed=0:00:19.81    \nframe=  126 fps=6.2 q=44.0 size=       1KiB time=00:00:04.20 bitrate=   1.2kbits/s speed=0.207x elapsed=0:00:20.33    \nframe=  126 fps=6.0 q=44.0 size=       1KiB time=00:00:04.20 bitrate=   1.2kbits/s speed=0.201x elapsed=0:00:20.85    \nframe=  126 fps=5.9 q=44.0 size=       1KiB time=00:00:04.20 bitrate=   1.2kbits/s speed=0.197x elapsed=0:00:21.35    \nframe=  126 fps=5.8 q=44.0 size=       1KiB time=00:00:04.20 bitrate=   1.2kbits/s speed=0.192x elapsed=0:00:21.87    \n[out#0/webm @ 000001a1154e0b00] video:4168KiB audio:0KiB subtitle:0KiB other streams:0KiB global headers:0KiB muxing overhead: 0.043463%\nframe=  150 fps=6.8 q=40.0 Lsize=    4170KiB time=00:00:05.00 bitrate=6831.8kbits/s speed=0.226x elapsed=0:00:22.13    \n",
  "seconds": 22.29625916481018,
  "probe_out": {}
}